<?xml version="1.0" encoding="UTF-8"?>
<svg width="68px" height="76px" viewBox="0 0 68 76" version="1.1" xmlns="http://www.w3.org/2000/svg" xmlns:xlink="http://www.w3.org/1999/xlink">
    <!-- Generator: Sketch 50.2 (55047) - http://www.bohemiancoding.com/sketch -->
    <title>Group 2</title>
    <desc>Created with Sketch.</desc>
    <defs></defs>
    <g id="Mobile" stroke="none" stroke-width="1" fill="none" fill-rule="evenodd">
        <g id="A3.load-failed" transform="translate(-146.000000, -597.000000)">
            <g id="Group-2" transform="translate(140.000000, 595.000000)">
                <rect id="Rectangle-18" x="0" y="0" width="80" height="80"></rect>
                <g id="Group" transform="translate(6.000000, 2.400000)" fill="#BBBBBB">
                    <path d="M55.942438,52.1732414 L67.4265397,72.3754292 C67.8632344,73.1436381 67.5944891,74.1204055 66.8262802,74.5571003 C66.5852719,74.6941035 66.3128015,74.766135 66.0355744,74.766135 L43.0673711,74.766135 C42.1837155,74.766135 41.4673711,74.0497906 41.4673711,73.166135 C41.4673711,72.8889079 41.5394027,72.6164375 41.6764058,72.3754292 L53.1605075,52.1732414 C53.5972022,51.4050325 54.5739696,51.1362872 55.3421785,51.5729819 C55.5926624,51.7153716 55.8000484,51.9227576 55.942438,52.1732414 Z M52.9516113,59.2549275 L52.9516113,64.8 C52.9516113,65.6836556 53.6679557,66.4 54.5516113,66.4 C55.4352669,66.4 56.1516113,65.6836556 56.1516113,64.8 L56.1516113,59.2549275 C56.1516113,58.3712719 55.4352669,57.6549275 54.5516113,57.6549275 C53.6679557,57.6549275 52.9516113,58.3712719 52.9516113,59.2549275 Z M54.5516113,72.4 C55.497801,72.4 56.2648394,71.6329617 56.2648394,70.6867719 C56.2648394,69.7405822 55.497801,68.9735439 54.5516113,68.9735439 C53.6054216,68.9735439 52.8383833,69.7405822 52.8383833,70.6867719 C52.8383833,71.6329617 53.6054216,72.4 54.5516113,72.4 Z" id="Combined-Shape"></path>
                    <path d="M54.5516297,46.5628413 C52.3267429,46.5648461 50.1657873,47.7285437 48.9876117,49.8011241 L40.4613759,64.8 L3.35162966,64.8 C1.58431846,64.8 0.151629663,63.3673112 0.151629663,61.6 L0.151629663,3.6 C0.151629663,1.8326888 1.58431846,0.4 3.35162966,0.4 L51.3516297,0.4 C53.1189409,0.4 54.5516297,1.8326888 54.5516297,3.6 L54.5516297,46.5628413 Z M8.55162966,20.5215645 L46.1516297,20.5215645 C47.4771131,20.5215645 48.5516297,19.4470479 48.5516297,18.1215645 C48.5516297,16.7960811 47.4771131,15.7215645 46.1516297,15.7215645 L8.55162966,15.7215645 C7.22614626,15.7215645 6.15162966,16.7960811 6.15162966,18.1215645 C6.15162966,19.4470479 7.22614626,20.5215645 8.55162966,20.5215645 Z M8.55162966,35.2856508 L46.1516297,35.2856508 C47.4771131,35.2856508 48.5516297,34.2111342 48.5516297,32.8856508 C48.5516297,31.5601674 47.4771131,30.4856508 46.1516297,30.4856508 L8.55162966,30.4856508 C7.22614626,30.4856508 6.15162966,31.5601674 6.15162966,32.8856508 C6.15162966,34.2111342 7.22614626,35.2856508 8.55162966,35.2856508 Z M8.55162966,49.6856508 L34,49.6856508 C35.3254834,49.6856508 36.4,48.6111342 36.4,47.2856508 C36.4,45.9601674 35.3254834,44.8856508 34,44.8856508 L8.55162966,44.8856508 C7.22614626,44.8856508 6.15162966,45.9601674 6.15162966,47.2856508 C6.15162966,48.6111342 7.22614626,49.6856508 8.55162966,49.6856508 Z" id="Combined-Shape"></path>
                </g>
            </g>
        </g>
    </g>
</svg>